<?xml version="1.0" encoding="iso-8859-1"?>
<!-- Generator: Adobe Illustrator 19.0.0, SVG Export Plug-In . SVG Version: 6.00 Build 0)  -->
<svg version="1.1" id="Capa_1" xmlns="http://www.w3.org/2000/svg" xmlns:xlink="http://www.w3.org/1999/xlink" x="0px" y="0px"
	 viewBox="0 0 512 512" style="enable-background:new 0 0 512 512;" xml:space="preserve">
<path style="fill:#7F838C;" d="M271,211c-8.291,0-15-6.709-15-15v-91c0-8.291,6.709-15,15-15s15,6.709,15,15v91
	C286,204.291,279.291,211,271,211z"/>
<g>
	<path style="fill:#757982;" d="M324.657,244.179c-3.706-7.412-0.703-16.421,6.709-20.127l73.686-36.343
		c7.397-3.662,16.421-0.688,20.127,6.709c3.706,7.412,0.703,16.421-6.709,20.127l-73.686,36.343
		C337.298,254.606,328.343,251.53,324.657,244.179z"/>
	<path style="fill:#757982;" d="M383.973,405.184l-70.565-70.565c-5.859-5.859-5.859-15.352,0-21.211s15.352-5.859,21.211,0
		l70.565,70.565c5.859,5.859,5.859,15.352,0,21.211C399.324,411.043,389.832,411.043,383.973,405.184z"/>
</g>
<g>
	<path style="fill:#7F838C;" d="M195.604,258.08l-69.98-26.528c-7.719-2.974-11.586-11.66-8.613-19.395
		c2.974-7.749,11.66-11.543,19.395-8.613l69.979,26.528c7.72,2.974,11.587,11.66,8.613,19.395
		C212.011,257.212,203.364,261.03,195.604,258.08z"/>
	<path style="fill:#7F838C;" d="M167.641,427.054c-6.899-4.6-8.76-13.901-4.16-20.801l53.452-81.186
		c4.57-6.899,13.872-8.774,20.801-4.16c6.899,4.6,8.76,13.901,4.16,20.801l-53.452,81.186
		C183.918,429.691,174.65,431.7,167.641,427.054z"/>
</g>
<path style="fill:#4DB5FF;" d="M271,361c-49.629,0-90-40.371-90-90s40.371-90,90-90s90,40.371,90,90S320.629,361,271,361z"/>
<path style="fill:#3DCEE3;" d="M75,271c-41.353,0-75-33.647-75-75s33.647-75,75-75s75,33.647,75,75S116.353,271,75,271z"/>
<g>
	<path style="fill:#3BB2D8;" d="M437,512c-41.353,0-75-33.647-75-75s33.647-75,75-75s75,33.647,75,75S478.353,512,437,512z"/>
	<path style="fill:#3BB2D8;" d="M452,241c-33.091,0-60-26.909-60-60s26.909-60,60-60s60,26.909,60,60S485.091,241,452,241z"/>
</g>
<path style="fill:#3DCEE3;" d="M151,512c-33.091,0-60-26.909-60-60s26.909-60,60-60s60,26.909,60,60S184.091,512,151,512z"/>
<path style="fill:#757982;" d="M286,196v-91c0-8.291-6.709-15-15-15v121C279.291,211,286,204.291,286,196z"/>
<path style="fill:#4D97FF;" d="M361,271c0-49.629-40.371-90-90-90v180C320.629,361,361,320.629,361,271z"/>
<path style="fill:#3DCEE3;" d="M271,120c-33.091,0-60-26.909-60-60s26.909-60,60-60s60,26.909,60,60S304.091,120,271,120z"/>
<path style="fill:#3BB2D8;" d="M331,60c0-33.091-26.909-60-60-60v120C304.091,120,331,93.091,331,60z"/>
<g>
</g>
<g>
</g>
<g>
</g>
<g>
</g>
<g>
</g>
<g>
</g>
<g>
</g>
<g>
</g>
<g>
</g>
<g>
</g>
<g>
</g>
<g>
</g>
<g>
</g>
<g>
</g>
<g>
</g>
</svg>
